<svg xmlns="http://www.w3.org/2000/svg" xmlns:xlink="http://www.w3.org/1999/xlink" width="500" zoomAndPan="magnify" viewBox="0 0 375 374.999991" height="500" preserveAspectRatio="xMidYMid meet" version="1.0"><defs><g/><clipPath id="215563c8ee"><path d="M 149 110.925781 L 204 110.925781 L 204 180.675781 L 149 180.675781 Z M 149 110.925781 " clip-rule="nonzero"/></clipPath><clipPath id="f6e329940f"><path d="M 133 131 L 174 131 L 174 180.675781 L 133 180.675781 Z M 133 131 " clip-rule="nonzero"/></clipPath><clipPath id="63f8c54f4c"><path d="M 123.304688 147 L 174 147 L 174 180.675781 L 123.304688 180.675781 Z M 123.304688 147 " clip-rule="nonzero"/></clipPath><clipPath id="4d8fb48b3d"><path d="M 208 110.925781 L 228 110.925781 L 228 202 L 208 202 Z M 208 110.925781 " clip-rule="nonzero"/></clipPath><clipPath id="40e768eacb"><path d="M 116.742188 176.441406 L 258.253906 176.441406 L 258.253906 223.285156 L 116.742188 223.285156 Z M 116.742188 176.441406 " clip-rule="nonzero"/></clipPath><clipPath id="84272ee895"><path d="M 176.574219 125.492188 L 192.324219 125.492188 L 192.324219 148.742188 L 176.574219 148.742188 Z M 176.574219 125.492188 " clip-rule="nonzero"/></clipPath></defs><g clip-path="url(#215563c8ee)"><path fill="#38b6ff" d="M 196.519531 110.925781 L 149.941406 119.851562 C 149.941406 119.851562 174.371094 158.289062 173.03125 181.042969 C 174.5625 153.484375 161.695312 124.707031 161.695312 124.707031 C 161.695312 124.707031 188.101562 119.066406 193.933594 118.339844 C 193.933594 118.339844 200.832031 125.117188 202.648438 142.453125 C 205.347656 127.160156 196.519531 110.925781 196.519531 110.925781 Z M 196.519531 110.925781 " fill-opacity="1" fill-rule="nonzero"/></g><g clip-path="url(#f6e329940f)"><path fill="#38b6ff" d="M 173.03125 181.042969 C 172.363281 179.324219 171.484375 177.621094 170.441406 175.949219 C 160.097656 159.269531 133.386719 144.691406 133.386719 144.691406 L 153.445312 131.332031 C 154.183594 132.652344 155.148438 134.125 156.039062 135.796875 C 151.90625 138.699219 146.527344 142.460938 144.257812 144.925781 C 144.257812 144.925781 160.792969 155.925781 170.128906 174.386719 C 171.210938 176.503906 172.199219 178.726562 173.03125 181.042969 Z M 173.03125 181.042969 " fill-opacity="1" fill-rule="nonzero"/></g><g clip-path="url(#63f8c54f4c)"><path fill="#38b6ff" d="M 173.035156 181.039062 C 172.378906 180.28125 171.65625 179.550781 170.894531 178.855469 C 170.25 178.265625 169.570312 177.683594 168.863281 177.132812 C 153.472656 164.960938 123.398438 160.324219 123.398438 160.324219 L 133.019531 147.59375 C 133.96875 148.140625 135.796875 149.054688 137.828125 150.316406 C 135.8125 153.277344 134.539062 154.828125 133.691406 156.839844 C 133.691406 156.839844 152.984375 161.582031 168.039062 175.769531 C 168.933594 176.601562 169.800781 177.46875 170.644531 178.367188 C 171.464844 179.21875 172.265625 180.113281 173.035156 181.039062 Z M 173.035156 181.039062 " fill-opacity="1" fill-rule="nonzero"/></g><path fill="#2c3e50" d="M 144.394531 206.808594 C 145.464844 206.46875 154.03125 207.714844 154.230469 207.472656 C 154.320312 207.367188 155.800781 207.433594 157.417969 207.539062 L 157.421875 175.058594 C 146.878906 178.421875 139.976562 178.453125 139.976562 178.453125 L 139.976562 206.699219 C 141.789062 206.859375 143.832031 206.988281 144.394531 206.808594 " fill-opacity="1" fill-rule="nonzero"/><g clip-path="url(#4d8fb48b3d)"><path fill="#2c3e50" d="M 220.773438 195.238281 L 227.792969 190.507812 L 227.765625 110.925781 C 221.589844 122.308594 214.992188 131.765625 208.292969 139.632812 L 208.347656 201.03125 C 210.550781 200.628906 212.269531 200.296875 212.4375 200.203125 C 212.925781 199.933594 220.773438 195.238281 220.773438 195.238281 " fill-opacity="1" fill-rule="nonzero"/></g><path fill="#2c3e50" d="M 179.121094 206.382812 L 180.933594 206.253906 L 180.949219 163.855469 C 174.070312 168.277344 167.578125 171.359375 161.878906 173.507812 L 161.863281 207.847656 L 170.132812 207.261719 L 179.121094 206.382812 " fill-opacity="1" fill-rule="nonzero"/><path fill="#2c3e50" d="M 197.894531 202.851562 C 197.894531 202.851562 200.695312 202.378906 203.839844 201.832031 L 203.839844 144.621094 C 197.636719 151.238281 191.410156 156.558594 185.40625 160.839844 L 185.40625 205.933594 L 188.539062 205.707031 L 197.894531 202.851562 " fill-opacity="1" fill-rule="nonzero"/><path fill="#2c3e50" d="M 250.335938 176.335938 C 249.5 172.164062 243.914062 169.277344 235.203125 167.800781 L 231.449219 167.386719 L 231.390625 167.476562 C 231.390625 167.476562 254.753906 173.277344 237.335938 184.320312 C 233.296875 187.039062 225.441406 191.613281 213 196.042969 C 213 196.042969 212.988281 196.046875 212.964844 196.058594 L 204.738281 198.742188 C 200.035156 200.144531 194.820312 201.488281 189.074219 202.699219 C 181.855469 204.21875 175.320312 205.191406 169.464844 205.785156 C 167.378906 206.089844 160.378906 206.441406 160.378906 206.441406 C 142.410156 207.183594 133.128906 204.164062 133.128906 204.164062 C 131.882812 203.820312 130.492188 203.316406 128.972656 202.53125 C 120.222656 198.027344 133.328125 188.101562 137.519531 185.1875 L 133.105469 187.652344 C 124.378906 192.761719 119.566406 198.046875 120.476562 202.574219 C 121.992188 210.132812 138.996094 213.476562 162.125 211.863281 C 166.542969 211.378906 171.113281 210.875 171.113281 210.875 C 176.902344 210.199219 182.960938 209.25 189.183594 208 C 195.195312 206.789062 200.964844 205.378906 206.402344 203.832031 L 209.273438 202.945312 C 211.976562 202.359375 214.710938 201.265625 214.710938 201.265625 C 237.117188 193.78125 251.875 183.980469 250.335938 176.335938 " fill-opacity="1" fill-rule="nonzero"/><g clip-path="url(#40e768eacb)"><path fill="#2c3e50" d="M 256.234375 176.472656 C 256.425781 176.933594 256.574219 177.40625 256.671875 177.894531 C 258.65625 187.761719 240.921875 200.070312 214.390625 208.703125 C 214.390625 208.703125 210.65625 209.832031 206.699219 211.03125 C 201.59375 212.464844 196.234375 213.757812 190.683594 214.871094 C 185.609375 215.894531 180.625 216.710938 175.789062 217.339844 C 175.789062 217.339844 172.117188 217.746094 167.949219 218.207031 C 142.253906 220.527344 122.011719 217.128906 116.742188 209.105469 C 118.632812 214.082031 124.332031 219.644531 139.484375 222.1875 C 149.882812 223.394531 159.796875 223.53125 169.046875 222.964844 C 173.007812 222.632812 176.859375 222.304688 176.859375 222.304688 C 188.238281 221.085938 198.429688 218.871094 207.039062 216.40625 C 214.859375 213.972656 214.859375 213.972656 214.859375 213.972656 C 227.125 209.839844 234.890625 205.714844 236.488281 204.835938 C 261.070312 190.902344 259.945312 181.382812 256.234375 176.472656 " fill-opacity="1" fill-rule="nonzero"/></g><g clip-path="url(#84272ee895)"><path fill="#38b6ff" d="M 187.023438 127.671875 L 190.8125 127.671875 L 192.265625 125.492188 L 178.03125 125.492188 L 176.582031 127.671875 L 179.050781 127.671875 C 181.554688 127.671875 183.863281 127.867188 184.789062 129.957031 L 178.03125 129.957031 L 176.582031 132.140625 L 185.058594 132.140625 C 185.058594 132.144531 185.058594 132.152344 185.058594 132.15625 C 185.058594 133.722656 183.757812 136.128906 179.453125 136.128906 L 177.371094 136.125 L 177.371094 138.164062 L 185.710938 148.589844 L 189.425781 148.589844 L 180.792969 137.804688 C 184.347656 137.613281 187.679688 135.628906 188.160156 132.140625 L 190.8125 132.140625 L 192.265625 129.957031 L 188.121094 129.957031 C 187.953125 129.117188 187.589844 128.304688 187.023438 127.671875 Z M 187.023438 127.671875 " fill-opacity="1" fill-rule="nonzero"/></g><g fill="#38b6ff" fill-opacity="1"><g transform="translate(102.864109, 256.810325)"><g><path d="M 12.40625 0.34375 C 16.007812 0.375 18.785156 -0.257812 20.734375 -1.5625 C 22.691406 -2.863281 23.671875 -4.734375 23.671875 -7.171875 C 23.671875 -8.535156 23.304688 -9.671875 22.578125 -10.578125 C 21.847656 -11.492188 20.910156 -12.242188 19.765625 -12.828125 C 18.628906 -13.421875 17.410156 -13.90625 16.109375 -14.28125 C 14.804688 -14.65625 13.582031 -14.972656 12.4375 -15.234375 C 11.300781 -15.492188 10.367188 -15.757812 9.640625 -16.03125 C 8.910156 -16.3125 8.546875 -16.660156 8.546875 -17.078125 C 8.546875 -18.160156 9.78125 -18.703125 12.25 -18.703125 C 14.53125 -18.703125 15.976562 -17.707031 16.59375 -15.71875 L 23.046875 -17.46875 C 22.390625 -19.8125 21.125 -21.617188 19.25 -22.890625 C 17.382812 -24.160156 15.050781 -24.796875 12.25 -24.796875 C 8.632812 -24.796875 5.847656 -24.144531 3.890625 -22.84375 C 1.941406 -21.539062 0.96875 -19.6875 0.96875 -17.28125 C 0.96875 -15.914062 1.332031 -14.785156 2.0625 -13.890625 C 2.800781 -12.992188 3.75 -12.257812 4.90625 -11.6875 C 6.0625 -11.125 7.28125 -10.660156 8.5625 -10.296875 C 9.851562 -9.941406 11.078125 -9.632812 12.234375 -9.375 C 13.390625 -9.113281 14.332031 -8.835938 15.0625 -8.546875 C 15.789062 -8.253906 16.15625 -7.863281 16.15625 -7.375 C 16.15625 -6.882812 15.828125 -6.507812 15.171875 -6.25 C 14.523438 -5.988281 13.601562 -5.859375 12.40625 -5.859375 C 10.15625 -5.859375 8.722656 -6.800781 8.109375 -8.6875 L 1.609375 -6.9375 C 2.296875 -4.59375 3.570312 -2.785156 5.4375 -1.515625 C 7.3125 -0.242188 9.632812 0.375 12.40625 0.34375 Z M 12.40625 0.34375 "/></g></g></g><g fill="#38b6ff" fill-opacity="1"><g transform="translate(127.752261, 256.810325)"><g><path d="M 1.609375 0 L 1.609375 -24.453125 L 8.296875 -24.453125 L 14.890625 -13.125 L 14.890625 -24.40625 L 22.84375 -24.40625 L 22.84375 0 L 16.15625 -0.046875 L 9.515625 -11.328125 L 9.515625 0 Z M 1.609375 0 "/></g></g></g><g fill="#38b6ff" fill-opacity="1"><g transform="translate(152.152402, 256.810325)"><g/></g></g><g fill="#2c3e50" fill-opacity="1"><g transform="translate(158.750824, 256.810325)"><g><path d="M 20.3125 -6.828125 L 20.3125 0 L 1.609375 0 L 1.609375 -24.40625 L 9.515625 -24.40625 L 9.515625 -6.828125 Z M 20.3125 -6.828125 "/></g></g></g><g fill="#2c3e50" fill-opacity="1"><g transform="translate(180.418151, 256.810325)"><g><path d="M 17.53125 -3.5625 L 9.328125 -3.5625 L 8 0 L 0.34375 0 L 9.46875 -24.40625 L 17.46875 -24.40625 L 26.5 0 L 18.796875 0 Z M 15.375 -9.421875 L 13.46875 -16.109375 L 11.46875 -9.421875 Z M 15.375 -9.421875 "/></g></g></g><g fill="#2c3e50" fill-opacity="1"><g transform="translate(207.209512, 256.810325)"><g><path d="M 16.15625 -12.15625 L 23.484375 0 L 15.140625 0 L 12.015625 -5.765625 L 8.9375 0 L 0.53125 0 L 7.90625 -12.15625 L 0.53125 -24.40625 L 8.6875 -24.40625 L 12.015625 -18.40625 L 15.375 -24.40625 L 23.484375 -24.40625 Z M 16.15625 -12.15625 "/></g></g></g><g fill="#2c3e50" fill-opacity="1"><g transform="translate(230.97525, 256.810325)"><g><path d="M 28.453125 0 L 20.5 0 L 20.5 -9.8125 L 16.59375 -2.640625 L 13.46875 -2.640625 L 9.515625 -9.8125 L 9.515625 0 L 1.609375 0 L 1.609375 -24.40625 L 8.6875 -24.40625 L 15.03125 -11.671875 L 21.375 -24.40625 L 28.453125 -24.40625 Z M 28.453125 0 "/></g></g></g><g fill="#2c3e50" fill-opacity="1"><g transform="translate(260.987425, 256.810325)"><g><path d="M 9.515625 -24.40625 L 9.515625 0 L 1.609375 0 L 1.609375 -24.40625 Z M 9.515625 -24.40625 "/></g></g></g></svg>